<svg xmlns="http://www.w3.org/2000/svg" viewBox="0 0 48 48"><defs><style>.simple_zone_editor-1{fill:#ededed;}.simple_zone_editor-2{fill:#84b556;}.simple_zone_editor-3{fill:#25323c;}</style></defs><title>simple_zone_editor</title><g id="Layer_22" data-name="Layer 22"><path class="simple_zone_editor-1" d="M13.66,20.6H12.5v5.64h1.16a3,3,0,0,0,2.55-1,3,3,0,0,0,.5-1.83,2.77,2.77,0,0,0-.69-2A3.17,3.17,0,0,0,13.66,20.6Z"/><path class="simple_zone_editor-1" d="M24,.08a23.92,23.92,0,1,0,9.76,45.75,8.52,8.52,0,1,1,12-12A23.91,23.91,0,0,0,24,.08ZM18.11,26.91a5.67,5.67,0,0,1-4.28,1.49H11.22A1.26,1.26,0,0,1,10.3,28a1.19,1.19,0,0,1-.37-.88V19.68a1.18,1.18,0,0,1,.37-.88,1.25,1.25,0,0,1,.91-.37H14a7.45,7.45,0,0,1,2.26.31,4.36,4.36,0,0,1,1.83,1.18,4.8,4.8,0,0,1,1.23,3.48A4.83,4.83,0,0,1,18.11,26.91Zm11.83.23a1.31,1.31,0,0,1-.44,1,1.49,1.49,0,0,1-1.05.41,1.45,1.45,0,0,1-1.24-.63l-3.82-5.18v4.66a1.08,1.08,0,0,1-.36.82,1.29,1.29,0,0,1-1.74,0,1.08,1.08,0,0,1-.36-.82V19.71a1.32,1.32,0,0,1,.43-1,1.53,1.53,0,0,1,2.29.24l3.84,5.15V19.47a1.1,1.1,0,0,1,.36-.83,1.27,1.27,0,0,1,1.74,0,1.1,1.1,0,0,1,.36.83Zm8.16.53a4.54,4.54,0,0,1-2.85.87,7.09,7.09,0,0,1-2.53-.43q-1.2-.47-1.2-1.32a1.21,1.21,0,0,1,1.22-1.23,2.93,2.93,0,0,1,1,.35,3.45,3.45,0,0,0,1.47.39c.8,0,1.2-.26,1.2-.79a.67.67,0,0,0-.32-.57,3.46,3.46,0,0,0-.91-.41l-.59-.18-.69-.22a5.52,5.52,0,0,1-.6-.25,3.92,3.92,0,0,1-.62-.36,2.82,2.82,0,0,1-1.13-2.39,2.49,2.49,0,0,1,1-2,4.6,4.6,0,0,1,2.89-.81,6.29,6.29,0,0,1,2.37.38q1.05.44,1.05,1.27a1.16,1.16,0,0,1-.34.86,1.18,1.18,0,0,1-.87.34,3.92,3.92,0,0,1-1.2-.37,3.11,3.11,0,0,0-1.16-.26q-1.05,0-1.05.57a.59.59,0,0,0,.3.51,3.46,3.46,0,0,0,.89.37l.63.18.77.23c.16.06.37.15.63.27a4,4,0,0,1,.67.39,2.69,2.69,0,0,1,1.07,2.29A2.81,2.81,0,0,1,38.11,27.68Z"/><path class="simple_zone_editor-2" d="M45.79,33.84a8.52,8.52,0,1,0,2,5.53A8.5,8.5,0,0,0,45.79,33.84ZM36.47,40.7a.23.23,0,0,1,0-.07l0-.06h0l5.3-5.3a.29.29,0,0,1,.41,0l1.62,1.62a.27.27,0,0,1,0,.31l-.1.16-5.24,5.24v0l-.07,0,0,0c-.51.2-2.51.87-2.59.9a.24.24,0,0,1-.29-.29C35.61,43.2,36.26,41.24,36.47,40.7Z"/><path class="simple_zone_editor-3" d="M16.28,18.75A7.45,7.45,0,0,0,14,18.43H11.22a1.25,1.25,0,0,0-.91.37,1.18,1.18,0,0,0-.37.88v7.48a1.19,1.19,0,0,0,.37.88,1.26,1.26,0,0,0,.91.37h2.62a5.67,5.67,0,0,0,4.28-1.49,4.83,4.83,0,0,0,1.23-3.5,4.8,4.8,0,0,0-1.23-3.48A4.36,4.36,0,0,0,16.28,18.75Zm-.07,6.5a3,3,0,0,1-2.55,1H12.5V20.6h1.16a3.17,3.17,0,0,1,2.36.78,2.77,2.77,0,0,1,.69,2A3,3,0,0,1,16.21,25.24Z"/><path class="simple_zone_editor-3" d="M28.72,18.3a1.21,1.21,0,0,0-.87.34,1.1,1.1,0,0,0-.36.83V24.1l-3.84-5.15a1.53,1.53,0,0,0-2.29-.24,1.32,1.32,0,0,0-.43,1v7.69a1.08,1.08,0,0,0,.36.82,1.29,1.29,0,0,0,1.74,0,1.08,1.08,0,0,0,.36-.82V22.74l3.82,5.18a1.45,1.45,0,0,0,1.24.63,1.49,1.49,0,0,0,1.05-.41,1.31,1.31,0,0,0,.44-1V19.47a1.1,1.1,0,0,0-.36-.83A1.21,1.21,0,0,0,28.72,18.3Z"/><path class="simple_zone_editor-3" d="M35.23,26.33a3.45,3.45,0,0,1-1.47-.39,2.93,2.93,0,0,0-1-.35,1.21,1.21,0,0,0-1.22,1.23q0,.85,1.2,1.32a7.09,7.09,0,0,0,2.53.43,4.54,4.54,0,0,0,2.85-.87,2.81,2.81,0,0,0,1.14-2.35A2.69,2.69,0,0,0,38.18,23a4,4,0,0,0-.67-.39c-.26-.12-.47-.21-.63-.27l-.77-.23L35.48,22a3.46,3.46,0,0,1-.89-.37.59.59,0,0,1-.3-.51q0-.57,1.05-.57a3.11,3.11,0,0,1,1.16.26,3.92,3.92,0,0,0,1.2.37,1.18,1.18,0,0,0,.87-.34,1.16,1.16,0,0,0,.34-.86q0-.83-1.05-1.27a6.29,6.29,0,0,0-2.37-.38,4.6,4.6,0,0,0-2.89.81,2.49,2.49,0,0,0-1,2,2.82,2.82,0,0,0,1.13,2.39,3.92,3.92,0,0,0,.62.36,5.52,5.52,0,0,0,.6.25l.69.22.59.18a3.46,3.46,0,0,1,.91.41.67.67,0,0,1,.32.57C36.44,26.06,36,26.33,35.23,26.33Z"/></g></svg>